<svg width="210" height="25" viewBox="0 0 210 25" fill="none" xmlns="http://www.w3.org/2000/svg">
<path d="M0 12.5V25H1.28947H2.57895V12.5V0H1.28947H0V12.5Z" fill="black"/>
<path d="M4.42105 12.5V25H4.97368H5.52631V12.5V0H4.97368H4.42105V12.5Z" fill="black"/>
<path d="M8.6579 12.5V25H9.21053H9.76316V12.5V0H9.21053H8.6579V12.5Z" fill="black"/>
<path d="M16.0263 12.5V25H18.6974H21.3684V12.5V0H18.6974H16.0263V12.5Z" fill="black"/>
<path d="M23.2105 12.5V25H23.7631H24.3158V12.5V0H23.7631H23.2105V12.5Z" fill="black"/>
<path d="M26.1579 12.5V25H28.1842H30.2105V12.5V0H28.1842H26.1579V12.5Z" fill="black"/>
<path d="M32.0526 12.5V25H33.9868H35.921V12.5V0H33.9868H32.0526V12.5Z" fill="black"/>
<path d="M37.7632 12.5V25H38.3158H38.8684V12.5V0H38.3158H37.7632V12.5Z" fill="black"/>
<path d="M43.4737 12.5V25H44.7632H46.0526V12.5V0H44.7632H43.4737V12.5Z" fill="black"/>
<path d="M47.8947 12.5V25H48.4473H49V12.5V0H48.4473H47.8947V12.5Z" fill="black"/>
<path d="M55.0789 12.5V25H56.3684H57.6579V12.5V0H56.3684H55.0789V12.5Z" fill="black"/>
<path d="M59.5 12.5V25H60.0526H60.6053V12.5V0H60.0526H59.5V12.5Z" fill="black"/>
<path d="M63.9211 12.5V25H65.1184H66.3158V12.5V0H65.1184H63.9211V12.5Z" fill="black"/>
<path d="M72.5789 12.5V25H73.1316H73.6842V12.5V0H73.1316H72.5789V12.5Z" fill="black"/>
<path d="M77 12.5V25H77.5526H78.1053V12.5V0H77.5526H77V12.5Z" fill="black"/>
<path d="M79.9474 12.5V25H80.4079H80.8684V12.5V0H80.4079H79.9474V12.5Z" fill="black"/>
<path d="M87.1316 12.5V25H88.421H89.7105V12.5V0H88.421H87.1316V12.5Z" fill="black"/>
<path d="M91.3684 12.5V25H91.921H92.4737V12.5V0H91.921H91.3684V12.5Z" fill="black"/>
<path d="M95.7895 12.5V25H96.3421H96.8947V12.5V0H96.3421H95.7895V12.5Z" fill="black"/>
<path d="M98.7368 12.5V25H99.2894H99.8421V12.5V0H99.2894H98.7368V12.5Z" fill="black"/>
<path d="M102.974 12.5V25H105.737H108.5V12.5V0H105.737H102.974V12.5Z" fill="black"/>
<path d="M111.816 12.5V25H112.368H112.921V12.5V0H112.368H111.816V12.5Z" fill="black"/>
<path d="M114.763 12.5V25H115.961H117.158V12.5V0H115.961H114.763V12.5Z" fill="black"/>
<path d="M120.474 12.5V25H121.026H121.579V12.5V0H121.026H120.474V12.5Z" fill="black"/>
<path d="M127.658 12.5V25H128.211H128.763V12.5V0H128.211H127.658V12.5Z" fill="black"/>
<path d="M134.842 12.5V25H135.395H135.947V12.5V0H135.395H134.842V12.5Z" fill="black"/>
<path d="M139.263 12.5V25H140.553H141.842V12.5V0H140.553H139.263V12.5Z" fill="black"/>
<path d="M143.684 12.5V25H144.237H144.789V12.5V0H144.237H143.684V12.5Z" fill="black"/>
<path d="M150.868 12.5V25H152.158H153.447V12.5V0H152.158H150.868V12.5Z" fill="black"/>
<path d="M155.289 12.5V25H155.842H156.395V12.5V0H155.842H155.289V12.5Z" fill="black"/>
<path d="M159.618 12.5V25H160.134H160.632V12.5V0H160.134H159.618V12.5Z" fill="black"/>
<path d="M163.947 12.5V25H164.5H165.053V12.5V0H164.5H163.947V12.5Z" fill="black"/>
<path d="M166.895 12.5V25H168.184H169.474V12.5V0H168.184H166.895V12.5Z" fill="black"/>
<path d="M175.553 12.5V25H176.105H176.658V12.5V0H176.105H175.553V12.5Z" fill="black"/>
<path d="M178.5 12.5V25H181.171H183.842V12.5V0H181.171H178.5V12.5Z" fill="black"/>
<path d="M185.684 12.5V25H187.711H189.737V12.5V0H187.711H185.684V12.5Z" fill="black"/>
<path d="M191.579 12.5V25H192.868H194.158V12.5V0H192.868H191.579V12.5Z" fill="black"/>
<path d="M198.763 12.5V25H200.789H202.816V12.5V0H200.789H198.763V12.5Z" fill="black"/>
<path d="M204.474 12.5V25H205.026H205.579V12.5V0H205.026H204.474V12.5Z" fill="black"/>
<path d="M207.421 12.5V25H208.71H210V12.5V0H208.71H207.421V12.5Z" fill="black"/>
</svg>
