<svg width="108" height="108" viewBox="0 0 108 108" fill="none" xmlns="http://www.w3.org/2000/svg">
<g clip-path="url(#clip0_3019_6848)">
<path d="M80.6475 20.818C80.9801 22.1596 80.1535 22.1786 79.4598 22.8066C73.9298 27.8494 65.7584 31.6078 60.3804 37.0883L59.3257 36.7457C60.846 35.0331 62.5563 33.2158 62.1667 30.7229C49.0258 29.7334 44.7691 41.3794 40.5218 51.2938L11 72.4926C21.1003 63.0159 21.5374 49.1149 27.9321 38.0302C39.03 18.8295 60.0858 11.9313 80.6475 20.818Z" fill="white"/>
<path d="M89.8927 49.1435C80.7425 56.4223 82.1583 69.6192 78.1676 78.8771C75.2125 85.7467 58.0429 89.5526 51.1447 90.1901C47.7051 90.5136 44.0279 89.8761 40.5693 90.2757C36.1415 90.78 32.2648 93.3109 28.0555 94.4432L50.8501 77.1549C53.4821 76.2225 57.4063 76.3271 59.7057 74.643C62.1287 72.8733 61.4351 69.7429 63.5634 67.859L89.8927 49.134V49.1435Z" fill="white"/>
<path d="M40.1322 56.2224C37.8993 63.8532 36.9966 73.9389 46.5269 76.3937L31.3811 87.2595C24.4924 84.5573 20.9768 77.1358 20.1881 70.1615L40.1322 56.2224Z" fill="white"/>
<path d="M97 14.4432C93.3988 19.153 86.8522 23.0064 86.9947 29.6573C87.0422 32.0359 89.0376 40.3423 87.0992 41.7505L69.9961 41.3414L69.426 33.682L97 14.4432Z" fill="white"/>
<path d="M80.6475 51.2557L57.2068 68.2491L58.6225 63.3014L51.5153 63.2919L54.3563 51.2557H80.6475Z" fill="white"/>
</g>
<defs>
<clipPath id="clip0_3019_6848">
<rect width="86" height="80" fill="white" transform="translate(11 14.4432)"/>
</clipPath>
</defs>
</svg>
