<svg width="108" height="108" viewBox="0 0 108 108" fill="none" xmlns="http://www.w3.org/2000/svg">
<g clip-path="url(#clip0_3019_6840)">
<path d="M80.6475 19.9266C80.9801 21.2682 80.1535 21.2872 79.4598 21.9152C73.9298 26.958 65.7584 30.7163 60.3804 36.1968L59.3257 35.8543C60.846 34.1417 62.5563 32.3243 62.1667 29.8315C49.0258 28.8419 44.7691 40.488 40.5218 50.4024L11 71.6012C21.1003 62.1245 21.5374 48.2235 27.9321 37.1388C39.03 17.938 60.0858 11.0398 80.6475 19.9266Z" fill="#273C81"/>
<path d="M89.8927 48.2521C80.7426 55.5309 82.1584 68.7278 78.1676 77.9857C75.2126 84.8553 58.043 88.6612 51.1448 89.2987C47.7051 89.6222 44.028 88.9847 40.5694 89.3843C36.1416 89.8886 32.2649 92.4195 28.0556 93.5518L50.8502 76.2635C53.4822 75.331 57.4064 75.4357 59.7058 73.7516C62.1287 71.9819 61.4351 68.8515 63.5635 66.9676L89.8927 48.2426V48.2521Z" fill="#273C81"/>
<path d="M40.1323 55.331C37.8994 62.9618 36.9967 73.0475 46.5269 75.5023L31.3812 86.3681C24.4924 83.6659 20.9768 76.2444 20.1882 69.2701L40.1323 55.331Z" fill="#273C81"/>
<path d="M97 13.5518C93.3988 18.2616 86.8522 22.115 86.9947 28.7658C87.0422 31.1445 89.0376 39.4509 87.0992 40.8591L69.9961 40.4499L69.426 32.7906L97 13.5518Z" fill="#273C81"/>
<path d="M80.6476 50.3643L57.2068 67.3577L58.6226 62.41L51.5153 62.4005L54.3563 50.3643H80.6476Z" fill="#273C81"/>
</g>
<defs>
<clipPath id="clip0_3019_6840">
<rect width="86" height="80" fill="white" transform="translate(11 13.5518)"/>
</clipPath>
</defs>
</svg>
