<svg width="12" height="12" viewBox="0 0 12 12" fill="none" xmlns="http://www.w3.org/2000/svg">
<g clip-path="url(#clip0_5006_175)">
<path d="M9.71826 1.3442C9.76467 1.52996 9.64932 1.5326 9.55254 1.61955C8.78091 2.31778 7.6407 2.83817 6.89029 3.597L6.74312 3.54958C6.95525 3.31244 7.1939 3.06081 7.13954 2.71564C5.30593 2.57863 4.71197 4.19116 4.11932 5.56392L0 8.49915C1.40935 7.18699 1.47033 5.26223 2.36261 3.72743C3.91117 1.06886 6.84919 0.113727 9.71826 1.3442Z" fill="white"/>
<path d="M11.0083 5.26621C9.73156 6.27404 9.9291 8.10131 9.37226 9.38317C8.95993 10.3344 6.56417 10.8613 5.60163 10.9496C5.12168 10.9944 4.60859 10.9061 4.12599 10.9614C3.50816 11.0313 2.96722 11.3817 2.37988 11.5385L5.56053 9.14471C5.92778 9.01561 6.47534 9.0301 6.79619 8.79691C7.13427 8.55187 7.03749 8.11844 7.33447 7.85759L11.0083 5.26489V5.26621Z" fill="white"/>
<path d="M4.06488 6.24634C3.75331 7.30291 3.62736 8.69939 4.95716 9.03928L2.8438 10.5438C1.88258 10.1696 1.39203 9.14204 1.28198 8.17637L4.06488 6.24634Z" fill="white"/>
<path d="M11.9999 0.461548C11.4974 1.11367 10.5839 1.64723 10.6038 2.56811C10.6104 2.89747 10.8888 4.04758 10.6184 4.24256L8.23189 4.18591L8.15234 3.12538L11.9999 0.461548Z" fill="white"/>
<path d="M9.71829 5.55859L6.44749 7.91152L6.64503 7.22646L5.65332 7.22514L6.04974 5.55859H9.71829Z" fill="white"/>
</g>
<defs>
<clipPath id="clip0_5006_175">
<rect width="12" height="12" fill="white"/>
</clipPath>
</defs>
</svg>
